<?xml version="1.0" encoding="utf-8"?>
<!-- Generator: Adobe Illustrator 19.0.0, SVG Export Plug-In . SVG Version: 6.00 Build 0)  -->
<svg version="1.1" id="Livello_1" xmlns="http://www.w3.org/2000/svg" xmlns:xlink="http://www.w3.org/1999/xlink" x="0px" y="0px"
	 viewBox="0 0 570.7 132" style="enable-background:new 0 0 570.7 132;" xml:space="preserve">
<style type="text/css">
	.st0{clip-path:url(#XMLID_96_);fill:none;stroke:#AA165F;stroke-width:22.415;stroke-linecap:round;}
	.st1{clip-path:url(#XMLID_96_);fill:none;stroke:#AA165F;stroke-width:22.415;stroke-linecap:round;stroke-linejoin:round;}
	.st2{clip-path:url(#XMLID_96_);fill:#8AA3B4;}
	.st3{fill:#AA165F;}
	.st4{clip-path:url(#XMLID_97_);fill:#AA165F;}
	.st5{clip-path:url(#XMLID_98_);fill:#AA165F;}
	.st6{clip-path:url(#XMLID_99_);fill:#AA165F;}
	.st7{clip-path:url(#XMLID_100_);fill:#AA165F;}
	.st8{clip-path:url(#XMLID_101_);fill:#AA165F;}
	.st9{fill:#8AA3B4;}
</style>
<g id="XMLID_1_">
	<defs>
		<rect id="XMLID_7_" y="-0.3" width="570.7" height="132.3"/>
	</defs>
	<clipPath id="XMLID_96_">
		<use xlink:href="#XMLID_7_"  style="overflow:visible;"/>
	</clipPath>
	<path id="XMLID_2_" class="st0" d="M222.5,120.1H273c10.7,0,20.5-9.4,20.5-20.5V43.3"/>
	<path id="XMLID_3_" class="st0" d="M559.5,12h-50.5c-10.7,0-20.5,9.4-20.5,20.5v88.2"/>
	<polyline id="XMLID_4_" class="st1" points="328,10.9 393.2,120.8 458.4,10.9 	"/>
	<path id="XMLID_5_" class="st2" d="M293.5,26.1c7.2,0,13.1-5.8,13.1-13.1c0-7.2-5.8-13.1-13.1-13.1c-7.2,0-13.1,5.8-13.1,13.1
		C280.4,20.3,286.3,26.1,293.5,26.1"/>
	<path id="XMLID_6_" class="st2" d="M519.2,78.5c7.2,0,13.1-5.8,13.1-13.1c0-7.2-5.8-13.1-13.1-13.1c-7.2,0-13.1,5.8-13.1,13.1
		C506.2,72.6,512,78.5,519.2,78.5"/>
</g>
<polygon id="XMLID_8_" class="st3" points="86.1,92.7 86.1,131.1 89.6,131.1 89.6,112.6 95.1,112.6 95.1,109.7 89.6,109.7 
	89.6,95.7 95.3,95.7 95.3,92.7 "/>
<rect id="XMLID_9_" x="130.1" y="92.7" class="st3" width="3.5" height="38.3"/>
<g id="XMLID_10_">
	<defs>
		<rect id="XMLID_14_" y="-0.3" width="570.7" height="132.3"/>
	</defs>
	<clipPath id="XMLID_97_">
		<use xlink:href="#XMLID_14_"  style="overflow:visible;"/>
	</clipPath>
	<path id="XMLID_11_" class="st4" d="M153.7,109.9h-2.3v-14h2c1.8,0,3,0.4,3,2.6v8.6C156.3,109.4,155.3,109.9,153.7,109.9
		 M155.9,111.3v-0.1c2.7-0.2,3.8-1.2,3.8-4.1v-9.7c0-3.8-2.1-4.4-5.4-4.4h-6.5v38.3h3.5v-18.4h2.3c1.6,0,2.8,0.5,2.8,2.3v16.1h3.5
		v-16.4C159.9,112.2,158.4,111.5,155.9,111.3"/>
</g>
<polygon id="XMLID_15_" class="st3" points="20.7,81.8 20.5,81.8 17.1,46.9 13.6,46.9 18.1,85.3 23.2,85.3 27.6,46.9 24.1,46.9 "/>
<rect id="XMLID_16_" x="39.4" y="46.9" class="st3" width="3.5" height="38.3"/>
<g id="XMLID_17_">
	<defs>
		<rect id="XMLID_21_" y="-0.3" width="570.7" height="132.3"/>
	</defs>
	<clipPath id="XMLID_98_">
		<use xlink:href="#XMLID_21_"  style="overflow:visible;"/>
	</clipPath>
	<path id="XMLID_18_" class="st5" d="M61.3,63.9H59v-14h2c1.8,0,3,0.4,3,2.6v8.6C63.9,63.4,62.9,63.9,61.3,63.9 M63.6,65.3v-0.1
		c2.7-0.2,3.8-1.2,3.8-4.1v-9.7c0-3.8-2.1-4.4-5.4-4.4h-6.5v38.3H59V66.8h2.3c1.6,0,2.8,0.5,2.8,2.3v16.1h3.5V68.9
		C67.6,66.2,66.1,65.5,63.6,65.3"/>
</g>
<polygon id="XMLID_22_" class="st3" points="82.7,85.3 86.2,85.3 86.2,49.9 90.1,49.9 90.1,46.9 78.7,46.9 78.7,49.9 82.7,49.9 "/>
<g id="XMLID_23_">
	<defs>
		<rect id="XMLID_25_" y="-0.3" width="570.7" height="132.3"/>
	</defs>
	<clipPath id="XMLID_99_">
		<use xlink:href="#XMLID_25_"  style="overflow:visible;"/>
	</clipPath>
	<path id="XMLID_24_" class="st6" d="M109.9,79c0,2.8-0.8,3.6-2.7,3.6c-1.8,0-2.7-0.8-2.7-3.6V46.9h-3.5v33.2c0,4.2,3.2,5.5,6.1,5.5
		c3,0,6.2-1.2,6.2-5.5V46.9h-3.5V79z"/>
</g>
<polygon id="XMLID_26_" class="st3" points="136.5,85.3 140,85.3 134.4,46.9 129.6,46.9 124,85.3 127.5,85.3 131.9,50.4 "/>
<polygon id="XMLID_27_" class="st3" points="150.6,85.3 159.9,85.3 159.9,82.3 154.1,82.3 154.1,46.9 150.6,46.9 "/>
<g id="XMLID_28_">
	<defs>
		<rect id="XMLID_30_" y="-0.3" width="570.7" height="132.3"/>
	</defs>
	<clipPath id="XMLID_100_">
		<use xlink:href="#XMLID_30_"  style="overflow:visible;"/>
	</clipPath>
	<path id="XMLID_29_" class="st7" d="M7.4,34.3c0,1.6-0.8,2.3-2,2.3c-1.1,0-2-0.7-2-2.3v-5.5H0v5.5c0,3.4,1.8,5.3,5.5,5.3
		c3.3,0,5.5-1.6,5.5-5.5V0.9H7.4V34.3z"/>
</g>
<polygon id="XMLID_31_" class="st3" points="24.3,39.3 35.7,39.3 35.7,36.3 27.8,36.3 27.8,20.8 35.4,20.8 35.4,17.9 27.8,17.9 
	27.8,3.9 35.7,3.9 35.7,0.9 24.3,0.9 "/>
<polygon id="XMLID_32_" class="st3" points="62.5,35.2 62.4,35.2 59.5,0.9 55.1,0.9 52.4,35.2 52.3,35.2 49.5,0.9 46.2,0.9 50,39.3 
	54.6,39.3 57.3,5.2 57.4,5.2 60,39.3 64.6,39.3 68.5,0.9 65.2,0.9 "/>
<polygon id="XMLID_33_" class="st3" points="80.4,39.3 91.7,39.3 91.7,36.3 83.9,36.3 83.9,20.8 91.5,20.8 91.5,17.9 83.9,17.9 
	83.9,3.9 91.7,3.9 91.7,0.9 80.4,0.9 "/>
<polygon id="XMLID_34_" class="st3" points="103.7,39.3 113,39.3 113,36.3 107.2,36.3 107.2,0.9 103.7,0.9 "/>
<g id="XMLID_35_">
	<defs>
		<rect id="XMLID_39_" y="-0.3" width="570.7" height="132.3"/>
	</defs>
	<clipPath id="XMLID_101_">
		<use xlink:href="#XMLID_39_"  style="overflow:visible;"/>
	</clipPath>
	<path id="XMLID_36_" class="st8" d="M130.6,17.9h-2.3v-14h2c1.8,0,3,0.4,3,2.6v8.6C133.2,17.4,132.2,17.9,130.6,17.9 M132.9,19.3
		v-0.1c2.7-0.2,3.8-1.2,3.8-4.1V5.3c0-3.8-2.1-4.4-5.4-4.4h-6.5v38.3h3.5V20.8h2.3c1.6,0,2.8,0.5,2.8,2.3v16.1h3.5V22.8
		C136.9,20.2,135.4,19.5,132.9,19.3"/>
</g>
<polygon id="XMLID_40_" class="st3" points="153.1,18.3 153,18.3 149.6,0.9 146.1,0.9 151.3,22.6 151.3,39.3 154.8,39.3 154.8,22.6 
	159.9,0.9 156.4,0.9 "/>
<polygon id="XMLID_41_" class="st3" points="109.1,92.7 103.5,131.1 107,131.1 111.4,96.3 116,131.1 119.5,131.1 113.9,92.7 "/>
<rect id="XMLID_42_" x="184.4" y="0.8" class="st9" width="3.5" height="130.2"/>
</svg>
